<?xml version="1.0" encoding="UTF-8"?>
<svg version="1.1" xmlns="http://www.w3.org/2000/svg" width="448" height="448">
<path d="M0 0 C1.24265625 0.30035156 2.4853125 0.60070313 3.765625 0.91015625 C34.79525862 8.79525862 34.79525862 8.79525862 43 17 C43.21432772 19.73855646 43.30411034 22.37722903 43.30639648 25.11816406 C43.31472 25.957379 43.32304352 26.79659393 43.33161926 27.66123962 C43.35578792 30.44608147 43.36450085 33.23068927 43.37109375 36.015625 C43.38005675 37.948955 43.38917853 39.88228426 43.39845276 41.81561279 C43.41496528 45.87432543 43.42264665 49.93295538 43.42553711 53.99169922 C43.43091509 59.1883532 43.46856124 64.38422768 43.51428127 69.58066177 C43.54405494 73.57672953 43.55126078 77.57260996 43.55226326 81.56877899 C43.55646701 83.48412384 43.56890752 85.39946917 43.58978081 87.3147049 C43.61669425 89.99846725 43.6118697 92.68042856 43.59936523 95.36425781 C43.62161667 96.54745857 43.62161667 96.54745857 43.64431763 97.75456238 C43.56809719 103.51103299 42.07469473 105.94080663 38 110 C36.74141903 111.18207899 35.45235542 112.33320638 34.125 113.4375 C31.4003255 115.75680861 28.81806033 118.13281103 26.3125 120.6875 C23.6876414 123.34831556 21.05099347 125.82071895 18 128 C17.34 128 16.68 128 16 128 C15.67 128.99 15.34 129.98 15 131 C13.6796875 132.33203125 13.6796875 132.33203125 11.875 133.8125 C7.54598717 137.48035451 3.39227994 141.31206019 -0.75 145.1875 C-1.72477295 146.09689331 -1.72477295 146.09689331 -2.71923828 147.0246582 C-5.31068556 149.4490773 -7.87014712 151.86470027 -10.328125 154.42578125 C-12 156 -12 156 -14 156 C-14.33 156.99 -14.66 157.98 -15 159 C-16.70703125 160.68359375 -16.70703125 160.68359375 -18.8125 162.4375 C-21.11265868 164.37967334 -23.27115592 166.2782916 -25.375 168.4375 C-27 170 -27 170 -29 170 C-29.33 170.99 -29.66 171.98 -30 173 C-31.70703125 174.75390625 -31.70703125 174.75390625 -33.8125 176.5625 C-34.49957031 177.16191406 -35.18664062 177.76132813 -35.89453125 178.37890625 C-37.86555845 179.89648749 -39.73964261 180.97902958 -42 182 C-42 182.66 -42 183.32 -42 184 C-43.50390625 185.48046875 -43.50390625 185.48046875 -45.5625 187.1875 C-48.3253868 189.53279758 -50.96679757 191.90829405 -53.5 194.5 C-56.5301296 197.58522286 -59.72717423 200.4079452 -63.0078125 203.22265625 C-65.66191631 205.59053318 -68.11257203 208.13074482 -70.5546875 210.71484375 C-72 212 -72 212 -74 212 C-74.33 212.99 -74.66 213.98 -75 215 C-75.66 215 -76.32 215 -77 215 C-77.66 216.32 -78.32 217.64 -79 219 C-79.99 219 -80.98 219 -82 219 C-82.33 197.55 -82.66 176.1 -83 154 C-89.93 153.87625 -96.86 153.7525 -104 153.625 C-106.17207031 153.57037598 -108.34414062 153.51575195 -110.58203125 153.45947266 C-112.32549829 153.44193052 -114.06899012 153.42664557 -115.8125 153.4140625 C-116.70001953 153.3833667 -117.58753906 153.3526709 -118.50195312 153.32104492 C-124.53576078 153.3160279 -127.85580877 154.66368867 -132.51049805 158.51278687 C-134.10683898 159.94954702 -134.10683898 159.94954702 -135 162 C-135.66 162 -136.32 162 -137 162 C-137 162.66 -137 163.32 -137 164 C-137.66 164 -138.32 164 -139 164 C-139 164.66 -139 165.32 -139 166 C-140.46875 167.4453125 -140.46875 167.4453125 -142.5 169.125 C-146.3499234 172.37893881 -149.86064335 175.84772718 -153.3359375 179.49609375 C-155 181 -155 181 -157 181 C-157 181.66 -157 182.32 -157 183 C-158.57421875 184.55078125 -158.57421875 184.55078125 -160.6875 186.3125 C-163.19802294 188.43644684 -165.60823421 190.55501344 -167.875 192.9375 C-170 195 -170 195 -172 195 C-172 195.66 -172 196.32 -172 197 C-173.609375 198.65625 -173.609375 198.65625 -175.75 200.5 C-176.44609375 201.1084375 -177.1421875 201.716875 -177.859375 202.34375 C-180 204 -180 204 -182.203125 205.03125 C-184.35632919 205.9273424 -184.35632919 205.9273424 -185 209 C-185.66 209 -186.32 209 -187 209 C-187 209.66 -187 210.32 -187 211 C-188.609375 212.5859375 -188.609375 212.5859375 -190.75 214.375 C-193.06856425 216.33371653 -195.22034379 218.23225426 -197.3125 220.4375 C-199 222 -199 222 -202 222 C-211.7809385 200.60951277 -208.79962753 170.05094303 -203 148 C-202.78569336 147.18208984 -202.57138672 146.36417969 -202.35058594 145.52148438 C-198.1232407 129.9289184 -191.73107447 115.93520874 -182 103 C-181.06088173 101.62610476 -180.12321637 100.25121442 -179.1875 98.875 C-178.465625 97.92625 -177.74375 96.9775 -177 96 C-176.34 96 -175.68 96 -175 96 C-174.72414062 95.40832031 -174.44828125 94.81664062 -174.1640625 94.20703125 C-171.07656165 88.35321253 -166.03746799 83.97415516 -161.02734375 79.7734375 C-157.6349893 76.8059444 -154.53727223 73.55177133 -151.39453125 70.32421875 C-150.54246094 69.45410156 -149.69039062 68.58398438 -148.8125 67.6875 C-147.95269531 66.80449219 -147.09289062 65.92148438 -146.20703125 65.01171875 C-144 63 -144 63 -142 63 C-142 62.34 -142 61.68 -142 61 C-140.25692106 59.46387524 -138.45450904 57.99459641 -136.625 56.5625 C-133.50197096 54.11330281 -131.20726199 52.31089299 -129 49 C-128.34 49 -127.68 49 -127 49 C-127 48.34 -127 47.68 -127 47 C-125.49609375 45.51953125 -125.49609375 45.51953125 -123.4375 43.8125 C-120.6746132 41.46720242 -118.03320243 39.09170595 -115.5 36.5 C-112.45885324 33.40355967 -109.24871439 30.57203205 -105.95703125 27.74609375 C-104.10207252 26.09107069 -102.39897657 24.3638393 -100.6875 22.5625 C-86.66096895 8.47306971 -66.57489658 -0.5563198 -47 -3 C-46.10152344 -3.12375 -45.20304688 -3.2475 -44.27734375 -3.375 C-29.4796492 -5.04000079 -14.40536006 -3.53843451 0 0 Z " fill="#E8CAC0" transform="translate(272,58)"/>
<path d="M0 0 C2.07421875 0.10546875 2.07421875 0.10546875 4 1 C4.94140625 2.64453125 4.94140625 2.64453125 5.5625 4.8125 C5.91634766 6.03453125 5.91634766 6.03453125 6.27734375 7.28125 C6.51582031 8.1784375 6.75429688 9.075625 7 10 C7.26941406 10.9384375 7.53882813 11.876875 7.81640625 12.84375 C10.98325235 24.4708178 11.28889575 36.00394809 11 48 C10.98324219 48.9178125 10.96648437 49.835625 10.94921875 50.78125 C9.87034301 72.23546477 2.32181596 92.45263093 -8 111 C-8.67689651 112.32816917 -9.34939628 113.65875542 -10 115 C-10.66 115 -11.32 115 -12 115 C-12 115.99 -12 116.98 -12 118 C-12.66 118 -13.32 118 -14 118 C-14.2371875 118.54140625 -14.474375 119.0828125 -14.71875 119.640625 C-16.34347757 122.63250137 -18.3501877 125.11159399 -20.5 127.75 C-21.2940625 128.73484375 -22.088125 129.7196875 -22.90625 130.734375 C-23.5971875 131.48203125 -24.288125 132.2296875 -25 133 C-25.66 133 -26.32 133 -27 133 C-27 133.66 -27 134.32 -27 135 C-29.375 137.625 -29.375 137.625 -32 140 C-32.66 140 -33.32 140 -34 140 C-34.33 140.99 -34.66 141.98 -35 143 C-36.70703125 144.68359375 -36.70703125 144.68359375 -38.8125 146.4375 C-41.11265868 148.37967334 -43.27115592 150.2782916 -45.375 152.4375 C-47 154 -47 154 -49 154 C-49.33 154.99 -49.66 155.98 -50 157 C-51.70703125 158.68359375 -51.70703125 158.68359375 -53.8125 160.4375 C-56.11265868 162.37967334 -58.27115592 164.2782916 -60.375 166.4375 C-62 168 -62 168 -64 168 C-64.33 168.99 -64.66 169.98 -65 171 C-65.66 171 -66.32 171 -67 171 C-67 171.66 -67 172.32 -67 173 C-68.609375 174.65625 -68.609375 174.65625 -70.75 176.5 C-71.44609375 177.1084375 -72.1421875 177.716875 -72.859375 178.34375 C-75 180 -75 180 -77.203125 181.03125 C-79.35632919 181.9273424 -79.35632919 181.9273424 -80 185 C-81.70703125 186.68359375 -81.70703125 186.68359375 -83.8125 188.4375 C-86.11265868 190.37967334 -88.27115592 192.2782916 -90.375 194.4375 C-92 196 -92 196 -94 196 C-94 196.66 -94 197.32 -94 198 C-99.47619048 203 -99.47619048 203 -102 203 C-102 203.66 -102 204.32 -102 205 C-103.81658391 206.62052764 -105.62495471 208.09768245 -107.5625 209.5625 C-108.14676758 210.00505127 -108.73103516 210.44760254 -109.33300781 210.90356445 C-133.60505246 228.94681333 -161.35295691 238.41852654 -191.75 234.25 C-203.86708011 232.0578145 -214.52516031 227.73962182 -225.296875 221.91357422 C-226.83265742 221.08976432 -228.39936813 220.3242525 -229.96875 219.56640625 C-232 218 -232 218 -232.56640625 215.52734375 C-231.81947383 212.19447978 -230.71169315 211.51571241 -227.9375 209.5625 C-222.34047382 205.38072186 -217.32758771 200.73597787 -212.26733398 195.92407227 C-202.84837796 187 -202.84837796 187 -200 187 C-199.67 186.01 -199.34 185.02 -199 184 C-197.38542921 182.56418526 -195.70780925 181.19855217 -194 179.875 C-189.23020743 176.08777226 -184.9583846 172.07532549 -180.77734375 167.65234375 C-179 166 -179 166 -177 166 C-177 165.34 -177 164.68 -177 164 C-175.29798454 162.76520447 -173.59172842 161.53560915 -171.859375 160.34375 C-169.28077769 158.48022589 -167.19420243 156.3012367 -165 154 C-163.610367 152.55650526 -162.21411378 151.11936444 -160.8125 149.6875 C-159.80123047 148.64142578 -159.80123047 148.64142578 -158.76953125 147.57421875 C-157 146 -157 146 -155 146 C-154.731875 145.360625 -154.46375 144.72125 -154.1875 144.0625 C-153 142 -153 142 -150 141 C-150 140.34 -150 139.68 -150 139 C-148.42578125 137.44921875 -148.42578125 137.44921875 -146.3125 135.6875 C-143.80197706 133.56355316 -141.39176579 131.44498656 -139.125 129.0625 C-137 127 -137 127 -135 127 C-135 126.34 -135 125.68 -135 125 C-133.46445901 123.65186756 -131.86809091 122.37284977 -130.25 121.125 C-125.82710012 117.59578774 -121.77070185 113.91546664 -117.8125 109.875 C-113.94769882 105.92997782 -110.01219594 102.16493846 -105.8046875 98.5859375 C-103.88826079 96.90180494 -102.10087348 95.13157517 -100.3125 93.3125 C-97.6876414 90.65168444 -95.05099347 88.17928105 -92 86 C-91.34 86 -90.68 86 -90 86 C-89.67 85.01 -89.34 84.02 -89 83 C-87.29296875 81.31640625 -87.29296875 81.31640625 -85.1875 79.5625 C-82.88734132 77.62032666 -80.72884408 75.7217084 -78.625 73.5625 C-77 72 -77 72 -75 72 C-74.67 71.01 -74.34 70.02 -74 69 C-72.6796875 67.66796875 -72.6796875 67.66796875 -70.875 66.1875 C-66.78387841 62.71624532 -62.85027508 59.1064508 -58.9375 55.4375 C-57.98242554 54.54285034 -57.98242554 54.54285034 -57.00805664 53.63012695 C-55.6838077 52.3892901 -54.35983779 51.14815541 -53.03613281 49.90673828 C-50.97279221 47.97452124 -48.90511871 46.04705383 -46.8359375 44.12109375 C-46.16183838 43.49340088 -45.48773926 42.86570801 -44.79321289 42.21899414 C-43.50374049 41.0185276 -42.21388393 39.81847352 -40.92358398 38.61889648 C-40.33649658 38.07177002 -39.74940918 37.52464355 -39.14453125 36.9609375 C-38.59748535 36.45143555 -38.05043945 35.94193359 -37.48681641 35.41699219 C-36.18954141 34.18064012 -34.93979687 32.89479674 -33.69921875 31.6015625 C-32 30 -32 30 -30 30 C-29.67 29.01 -29.34 28.02 -29 27 C-27.29296875 25.31640625 -27.29296875 25.31640625 -25.1875 23.5625 C-22.88734132 21.62032666 -20.72884408 19.7217084 -18.625 17.5625 C-17 16 -17 16 -15 16 C-14.67 15.01 -14.34 14.02 -14 13 C-12.36328125 11.38671875 -12.36328125 11.38671875 -10.3125 9.6875 C-7.60261999 7.41391552 -5.13173112 5.11320371 -2.75 2.5 C-1.8425 1.675 -0.935 0.85 0 0 Z " fill="#FD858B" transform="translate(372,148)"/>
<path d="M0 0 C0.33 0 0.66 0 1 0 C1.4375 2.0625 1.4375 2.0625 1 5 C-1.09140614 7.59357993 -3.53427052 9.7673752 -6 12 C-6.804375 12.804375 -7.60875 13.60875 -8.4375 14.4375 C-9.283125 15.283125 -10.12875 16.12875 -11 17 C-11.66515625 17.68835938 -12.3303125 18.37671875 -13.015625 19.0859375 C-13.73234375 19.82070313 -14.4490625 20.55546875 -15.1875 21.3125 C-15.86167969 22.00988281 -16.53585938 22.70726562 -17.23046875 23.42578125 C-19 25 -19 25 -21 25 C-21.12375 25.61875 -21.2475 26.2375 -21.375 26.875 C-22 29 -22 29 -24 31 C-24.7425 31.08507812 -25.485 31.17015625 -26.25 31.2578125 C-30.19127552 32.32150902 -32.31562596 34.9657926 -35 37.875 C-38.46385183 41.57622238 -41.52978611 44.50216328 -46 47 C-47.68615782 48.64694485 -49.35570171 50.31126121 -51 52 C-51.99 52.495 -51.99 52.495 -53 53 C-53.72159424 54.64363134 -54.39351421 56.31050386 -55 58 C-54.01 58.33 -53.02 58.66 -52 59 C-52 59.66 -52 60.32 -52 61 C-50.35 61.66 -48.7 62.32 -47 63 C-47 63.66 -47 64.32 -47 65 C-41.02667877 68.4753869 -36.88490225 69.57374185 -30 69 C-30.495 70.485 -30.495 70.485 -31 72 C-29.95199219 72.13277344 -28.90398437 72.26554687 -27.82421875 72.40234375 C-26.44529222 72.58057235 -25.06638707 72.75896641 -23.6875 72.9375 C-22.99720703 73.02451172 -22.30691406 73.11152344 -21.59570312 73.20117188 C-18.59857712 73.59210135 -15.87549881 74.0415004 -13 75 C-12.67 75.99 -12.34 76.98 -12 78 C-28.27561075 76.51862705 -41.87833081 72.71206567 -56.296875 64.91357422 C-57.83265742 64.08976432 -59.39936813 63.3242525 -60.96875 62.56640625 C-63 61 -63 61 -63.56640625 58.52734375 C-62.81947383 55.19447978 -61.71169315 54.51571241 -58.9375 52.5625 C-53.34047382 48.38072186 -48.32758771 43.73597787 -43.26733398 38.92407227 C-33.84837796 30 -33.84837796 30 -31 30 C-30.505 28.515 -30.505 28.515 -30 27 C-28.38542921 25.56418526 -26.70780925 24.19855217 -25 22.875 C-20.23020743 19.08777226 -15.9583846 15.07532549 -11.77734375 10.65234375 C-10 9 -10 9 -8 9 C-8 8.34 -8 7.68 -8 7 C-6.50390625 5.78125 -6.50390625 5.78125 -4.5625 4.5 C-1.77468153 2.7134637 -1.77468153 2.7134637 0 0 Z " fill="#E96A92" transform="translate(203,305)"/>
<path d="M0 0 C1.94140625 0.93359375 1.94140625 0.93359375 3.0234375 2.9296875 C3.38501953 4.13818359 3.38501953 4.13818359 3.75390625 5.37109375 C4.00785156 6.17417969 4.26179688 6.97726563 4.5234375 7.8046875 C4.94140625 9.93359375 4.94140625 9.93359375 3.94140625 11.93359375 C1.94140625 8.93359375 1.94140625 8.93359375 1.94140625 5.93359375 C-2.7761107 7.35142671 -5.48038345 10.10941019 -8.74609375 13.62109375 C-13.17134922 18.24712086 -17.59138356 21.99475261 -23.09765625 25.3359375 C-25.49725254 27.29098706 -25.99951693 29.07222832 -27.05859375 31.93359375 C-28.35796875 32.70703125 -28.35796875 32.70703125 -29.68359375 33.49609375 C-30.46734375 33.97046875 -31.25109375 34.44484375 -32.05859375 34.93359375 C-32.05859375 36.25359375 -32.05859375 37.57359375 -32.05859375 38.93359375 C-33.37859375 38.93359375 -34.69859375 38.93359375 -36.05859375 38.93359375 C-36.45046875 39.65546875 -36.84234375 40.37734375 -37.24609375 41.12109375 C-39.54079856 44.6818426 -41.9629448 45.70560321 -45.65625 47.62109375 C-49.42428175 49.67972573 -52.7182047 52.25044149 -56.05859375 54.93359375 C-56.72503906 55.4646875 -57.39148438 55.99578125 -58.078125 56.54296875 C-61.93690296 59.58947189 -61.93690296 59.58947189 -64.05859375 63.93359375 C-66.62109375 65.12109375 -66.62109375 65.12109375 -69.05859375 65.93359375 C-68.48479818 62.69717775 -67.63693439 61.16661765 -65.20703125 58.97265625 C-64.60995361 58.42528809 -64.01287598 57.87791992 -63.39770508 57.31396484 C-62.74954834 56.73469238 -62.1013916 56.15541992 -61.43359375 55.55859375 C-60.07011605 54.31401726 -58.70684088 53.06921888 -57.34375 51.82421875 C-56.63879395 51.18548828 -55.93383789 50.54675781 -55.20751953 49.88867188 C-51.732417 46.72704713 -48.30291865 43.5170303 -44.87109375 40.30859375 C-44.24831543 39.72932129 -43.62553711 39.15004883 -42.98388672 38.55322266 C-42.39623535 38.00585449 -41.80858398 37.45848633 -41.203125 36.89453125 C-40.6560791 36.3850293 -40.1090332 35.87552734 -39.54541016 35.35058594 C-38.24813516 34.11423387 -36.99839062 32.82839049 -35.7578125 31.53515625 C-34.05859375 29.93359375 -34.05859375 29.93359375 -32.05859375 29.93359375 C-31.56359375 28.44859375 -31.56359375 28.44859375 -31.05859375 26.93359375 C-29.3515625 25.25 -29.3515625 25.25 -27.24609375 23.49609375 C-24.94593507 21.55392041 -22.78743783 19.65530215 -20.68359375 17.49609375 C-19.05859375 15.93359375 -19.05859375 15.93359375 -17.05859375 15.93359375 C-16.72859375 14.94359375 -16.39859375 13.95359375 -16.05859375 12.93359375 C-14.421875 11.3203125 -14.421875 11.3203125 -12.37109375 9.62109375 C-9.66121374 7.34750927 -7.19032487 5.04679746 -4.80859375 2.43359375 C-2.05859375 -0.06640625 -2.05859375 -0.06640625 0 0 Z " fill="#FD947E" transform="translate(374.05859375,148.06640625)"/>
<path d="M0 0 C0.33 0.66 0.66 1.32 1 2 C0.34 1.67 -0.32 1.34 -1 1 C-0.67 0.67 -0.34 0.34 0 0 Z M-5 1 C-4.67 1.66 -4.34 2.32 -4 3 C-3.34 3.33 -2.68 3.66 -2 4 C-2.99 4.66 -3.98 5.32 -5 6 C-6.20450304 8.55183404 -6.20450304 8.55183404 -7 11 C-6.01 11.33 -5.02 11.66 -4 12 C-4 12.66 -4 13.32 -4 14 C-1.525 14.99 -1.525 14.99 1 16 C1 16.66 1 17.32 1 18 C6.97332123 21.4753869 11.11509775 22.57374185 18 22 C17.505 23.485 17.505 23.485 17 25 C18.04800781 25.13277344 19.09601563 25.26554687 20.17578125 25.40234375 C21.55470778 25.58057235 22.93361293 25.75896641 24.3125 25.9375 C25.00279297 26.02451172 25.69308594 26.11152344 26.40429688 26.20117188 C29.40142288 26.59210135 32.12450119 27.0415004 35 28 C35.495 29.485 35.495 29.485 36 31 C19.72438925 29.51862705 6.12166919 25.71206567 -8.296875 17.91357422 C-9.83265742 17.08976432 -11.39936813 16.3242525 -12.96875 15.56640625 C-15 14 -15 14 -15.625 11.58203125 C-14.74521604 7.94742376 -12.97330652 6.88031356 -10 4.6875 C-9.071875 3.99011719 -8.14375 3.29273438 -7.1875 2.57421875 C-6.1046875 1.79498047 -6.1046875 1.79498047 -5 1 Z " fill="#EB628D" transform="translate(155,352)"/>
<path d="M0 0 C0.66 0.99 1.32 1.98 2 3 C0.54712339 4.33927721 -0.91247259 5.67126847 -2.375 7 C-3.18710938 7.7425 -3.99921875 8.485 -4.8359375 9.25 C-7 11 -7 11 -9 11 C-9.22429687 11.55042969 -9.44859375 12.10085938 -9.6796875 12.66796875 C-11.41093976 15.72583148 -13.62237725 17.84821826 -16.125 20.3125 C-17.03507812 21.21613281 -17.94515625 22.11976563 -18.8828125 23.05078125 C-21.11795758 25.20668659 -23.42905704 27.24691701 -25.78515625 29.26953125 C-31.41068081 34.14877185 -36.53609843 39.52453112 -41.72851562 44.85546875 C-42.87803711 46.02142578 -42.87803711 46.02142578 -44.05078125 47.2109375 C-44.73825439 47.91524902 -45.42572754 48.61956055 -46.1340332 49.34521484 C-48 51 -48 51 -51 52 C-50.56947157 47.1236066 -48.51407503 45.03013005 -45.0625 41.6875 C-44.16660156 40.80449219 -43.27070313 39.92148437 -42.34765625 39.01171875 C-40 37 -40 37 -38 37 C-37.731875 36.360625 -37.46375 35.72125 -37.1875 35.0625 C-36 33 -36 33 -33 32 C-33 31.34 -33 30.68 -33 30 C-31.42578125 28.44921875 -31.42578125 28.44921875 -29.3125 26.6875 C-26.80197706 24.56355316 -24.39176579 22.44498656 -22.125 20.0625 C-20 18 -20 18 -18 18 C-18 17.34 -18 16.68 -18 16 C-16.3623728 14.54597658 -14.66265804 13.16151322 -12.9375 11.8125 C-8.31628688 8.12269417 -4.05293181 4.30191738 0 0 Z " fill="#F47C93" transform="translate(255,257)"/>
<path d="M0 0 C0.66 0.33 1.32 0.66 2 1 C0.6701338 2.35757174 -0.66413071 3.71083496 -2 5.0625 C-2.7425 5.81660156 -3.485 6.57070312 -4.25 7.34765625 C-6.39355661 9.41509224 -8.55866346 11.36736125 -10.8125 13.30859375 C-15.08082225 17.01184379 -19.04475892 20.96750811 -23 25 C-27.56897944 29.65821732 -32.207682 34.12055059 -37.15234375 38.37939453 C-39.71760046 40.62941753 -42.10376563 43.00798459 -44.5 45.4375 C-45.3559375 46.30246094 -46.211875 47.16742188 -47.09375 48.05859375 C-47.7228125 48.69925781 -48.351875 49.33992188 -49 50 C-48.01 50.33 -47.02 50.66 -46 51 C-46 51.66 -46 52.32 -46 53 C-48.97 53 -51.94 53 -55 53 C-55.33 52.34 -55.66 51.68 -56 51 C-55.34 51 -54.68 51 -54 51 C-53.78214844 50.43667969 -53.56429687 49.87335938 -53.33984375 49.29296875 C-51.56040735 46.24769422 -49.30593111 44.51671755 -46.5625 42.3125 C-45.59441406 41.52488281 -44.62632812 40.73726562 -43.62890625 39.92578125 C-41 38 -41 38 -38 37 C-37.67 36.01 -37.34 35.02 -37 34 C-36.34 34 -35.68 34 -35 34 C-35 33.34 -35 32.68 -35 32 C-33.42578125 30.44921875 -33.42578125 30.44921875 -31.3125 28.6875 C-28.92515729 26.66035285 -26.65468039 24.65468039 -24.4375 22.4375 C-22.4926968 20.4926968 -20.54533075 18.75503704 -18.4375 17 C-16.23685443 15.15183878 -14.62383257 13.5271038 -12.8125 11.25 C-11 9 -11 9 -9.0625 8.0625 C-6.83664393 6.91584687 -5.93247434 5.86493158 -4.375 3.9375 C-2 1 -2 1 0 0 Z " fill="#F1BDB1" transform="translate(202,158)"/>
<path d="M0 0 C0.66 0.33 1.32 0.66 2 1 C0.65933834 2.45010342 -0.69829359 3.88452434 -2.0625 5.3125 C-2.81660156 6.11300781 -3.57070313 6.91351563 -4.34765625 7.73828125 C-6.87876567 9.89662051 -9.04915247 10.90667836 -12.11499023 12.10375977 C-15.8417282 13.87566173 -18.86501274 16.66697914 -22 19.3125 C-22.67289062 19.86873047 -23.34578125 20.42496094 -24.0390625 20.99804688 C-28.4019488 24.61553658 -32.70449047 28.30295339 -37 32 C-37.33 31.01 -37.66 30.02 -38 29 C-35.6875 26.5 -35.6875 26.5 -33 24 C-32.01 24 -31.02 24 -30 24 C-29.76410156 23.42121094 -29.52820313 22.84242187 -29.28515625 22.24609375 C-25.54450041 15.70847336 -17.47588615 11.40620774 -10.91015625 8.10546875 C-8.92752373 7.0766104 -8.92752373 7.0766104 -7.43359375 5.36328125 C-6 4 -6 4 -3 4 C-2.67 3.01 -2.34 2.02 -2 1 C-1.34 0.67 -0.68 0.34 0 0 Z " fill="#F0D4C9" transform="translate(287,83)"/>
<path d="M0 0 C0.66 0.66 1.32 1.32 2 2 C1.03900391 2.72703125 1.03900391 2.72703125 0.05859375 3.46875 C-5.64434612 7.88831592 -10.40368243 12.45990523 -15 18 C-17.3125 20.5 -17.3125 20.5 -19 22 C-19.66 22 -20.32 22 -21 22 C-20.67 20.68 -20.34 19.36 -20 18 C-19.34 18 -18.68 18 -18 18 C-18 17.34 -18 16.68 -18 16 C-16.49609375 14.51953125 -16.49609375 14.51953125 -14.4375 12.8125 C-10.95106998 9.85768874 -7.71258683 6.77054737 -4.54296875 3.48046875 C-3 2 -3 2 0 0 Z " fill="#D5CFCD" transform="translate(163,89)"/>
<path d="M0 0 C2.49710155 1.44992993 2.81053016 2.75697331 3.62890625 5.4921875 C3.88285156 6.29527344 4.13679688 7.09835938 4.3984375 7.92578125 C4.81640625 10.0546875 4.81640625 10.0546875 3.81640625 12.0546875 C1.81640625 9.0546875 1.81640625 9.0546875 1.81640625 6.0546875 C1.03265625 6.2196875 0.24890625 6.3846875 -0.55859375 6.5546875 C-3.18359375 7.0546875 -3.18359375 7.0546875 -5.18359375 7.0546875 C-6.54520686 8.01582616 -7.88214573 9.01352909 -9.18359375 10.0546875 C-9.84359375 9.7246875 -10.50359375 9.3946875 -11.18359375 9.0546875 C-9.78280977 7.51921275 -8.36238472 6.00163602 -6.93359375 4.4921875 C-5.75023437 3.22181641 -5.75023437 3.22181641 -4.54296875 1.92578125 C-2.18359375 0.0546875 -2.18359375 0.0546875 0 0 Z " fill="#FC9A7E" transform="translate(374.18359375,147.9453125)"/>
<path d="M0 0 C0.99 0.33 1.98 0.66 3 1 C3 3 3 3 1.3203125 4.7265625 C0.59585938 5.35304688 -0.12859375 5.97953125 -0.875 6.625 C-1.59429687 7.25664062 -2.31359375 7.88828125 -3.0546875 8.5390625 C-5 10 -5 10 -7 10 C-7 11.32 -7 12.64 -7 14 C-8.65 14 -10.3 14 -12 14 C-12 11 -12 11 -9.375 8.30078125 C-8.25745974 7.29632542 -7.13208967 6.30052871 -6 5.3125 C-5.42765625 4.80138672 -4.8553125 4.29027344 -4.265625 3.76367188 C-2.85032787 2.5016986 -1.42599731 1.24986967 0 0 Z " fill="#E17491" transform="translate(191,316)"/>
<path d="M0 0 C0.66 0.33 1.32 0.66 2 1 C0.35446591 2.69393215 -1.30419392 4.35732623 -3 6 C-3.50402344 6.48855469 -4.00804687 6.97710937 -4.52734375 7.48046875 C-6.0625 8.875 -6.0625 8.875 -9 11 C-11.18359375 10.6328125 -11.18359375 10.6328125 -13 10 C-11.58829091 8.70291686 -10.17041804 7.41254022 -8.75 6.125 C-7.96109375 5.40570313 -7.1721875 4.68640625 -6.359375 3.9453125 C-4.26285918 2.21672826 -2.53958562 0.94420491 0 0 Z " fill="#F77494" transform="translate(269,350)"/>
<path d="M0 0 C0.66 0.66 1.32 1.32 2 2 C1.9375 4.5 1.9375 4.5 1 7 C-1.5625 8.3125 -1.5625 8.3125 -4 9 C-4.33 7.68 -4.66 6.36 -5 5 C-4.360625 4.731875 -3.72125 4.46375 -3.0625 4.1875 C-0.66868314 3.11332248 -0.66868314 3.11332248 0 0 Z " fill="#FD9D6C" transform="translate(358,161)"/>
<path d="M0 0 C0 0.99 0 1.98 0 3 C-1.75 4.53515625 -1.75 4.53515625 -4 6.0625 C-6.20448277 7.52442645 -6.20448277 7.52442645 -8 9 C-8 9.66 -8 10.32 -8 11 C-7.34 11.66 -6.68 12.32 -6 13 C-7.98 13 -9.96 13 -12 13 C-12.33 12.34 -12.66 11.68 -13 11 C-12.34 11 -11.68 11 -11 11 C-10.76539063 10.41734375 -10.53078125 9.8346875 -10.2890625 9.234375 C-8.70847076 6.49468266 -6.90598503 5.13016031 -4.375 3.25 C-3.55773437 2.63640625 -2.74046875 2.0228125 -1.8984375 1.390625 C-0.95871094 0.70226562 -0.95871094 0.70226562 0 0 Z " fill="#E5BCB2" transform="translate(159,198)"/>
<path d="M0 0 C0.33 0.99 0.66 1.98 1 3 C-0.43032837 4.17544805 -1.86953242 5.34010262 -3.3125 6.5 C-4.11300781 7.1496875 -4.91351563 7.799375 -5.73828125 8.46875 C-8 10 -8 10 -11 10 C-10.360625 9.401875 -9.72125 8.80375 -9.0625 8.1875 C-6.79689611 6.09189663 -6.79689611 6.09189663 -6 3 C-2.9375 1.3125 -2.9375 1.3125 0 0 Z " fill="#E0728F" transform="translate(171,336)"/>
<path d="M0 0 C0.99 0.495 0.99 0.495 2 1 C1.01 1.495 1.01 1.495 0 2 C0 1.34 0 0.68 0 0 Z M-3 3 C-2.34 3.33 -1.68 3.66 -1 4 C-2.98 5.98 -4.96 7.96 -7 10 C-6.01 10.33 -5.02 10.66 -4 11 C-4 11.66 -4 12.32 -4 13 C-5.65 12.67 -7.3 12.34 -9 12 C-9 8 -9 8 -7.6875 6.515625 C-6.125 5.34375 -4.5625 4.171875 -3 3 Z " fill="#F4B3A7" transform="translate(160,198)"/>
<path d="M0 0 C0.66 0 1.32 0 2 0 C1.88590407 1.45922693 1.75834456 2.91740598 1.625 4.375 C1.55539062 5.18710938 1.48578125 5.99921875 1.4140625 6.8359375 C1 9 1 9 -1 11 C-1.66 11 -2.32 11 -3 11 C-3 8.69 -3 6.38 -3 4 C-2.34 4 -1.68 4 -1 4 C-0.67 2.68 -0.34 1.36 0 0 Z " fill="#FD9679" transform="translate(376,221)"/>
<path d="M0 0 C3.00617269 3.00617269 2.59585316 5.82381598 3 10 C2.01 10 1.02 10 0 10 C-1.49106457 7.01787087 -1.11941467 4.28390342 -1 1 C-0.67 0.67 -0.34 0.34 0 0 Z " fill="#FD9D7F" transform="translate(379,164)"/>
<path d="M0 0 C0.99 0.33 1.98 0.66 3 1 C1.02 4.63 -0.96 8.26 -3 12 C-3.33 12 -3.66 12 -4 12 C-4.22036864 8.14354879 -3.60355101 5.50776784 -2 2 C-1.34 2 -0.68 2 0 2 C0 1.34 0 0.68 0 0 Z " fill="#FE9885" transform="translate(365,251)"/>
<path d="M0 0 C0.66 0.33 1.32 0.66 2 1 C-0.97 3.97 -3.94 6.94 -7 10 C-7.33 8.68 -7.66 7.36 -8 6 C-7.236875 5.566875 -6.47375 5.13375 -5.6875 4.6875 C-3.41906232 3.26313215 -1.7800277 1.96739903 0 0 Z " fill="#F3C4B6" transform="translate(214,147)"/>
<path d="M0 0 C0.99 0.33 1.98 0.66 3 1 C-1.75 5.875 -1.75 5.875 -4 7 C-3.43628586 3.73045798 -2.50037734 2.17424117 0 0 Z " fill="#F98F93" transform="translate(260,252)"/>
<path d="M0 0 C-0.33 0.99 -0.66 1.98 -1 3 C-3.31 3 -5.62 3 -8 3 C-8.33 2.34 -8.66 1.68 -9 1 C-5.92677456 0.08941469 -3.19902639 -0.08886184 0 0 Z " fill="#F26E90" transform="translate(213,379)"/>
<path d="M0 0 C0.66 0.33 1.32 0.66 2 1 C-2.39453125 5.00390625 -2.39453125 5.00390625 -4 6 C-4.99 5.67 -5.98 5.34 -7 5 C-6.360625 4.896875 -5.72125 4.79375 -5.0625 4.6875 C-4.381875 4.460625 -3.70125 4.23375 -3 4 C-2.67 3.01 -2.34 2.02 -2 1 C-1.34 0.67 -0.68 0.34 0 0 Z " fill="#F0DAD0" transform="translate(287,83)"/>
<path d="M0 0 C0.66 0 1.32 0 2 0 C1.42655063 2.86724686 1.1385485 3.8614515 -1 6 C-1.99 5.67 -2.98 5.34 -4 5 C-2.71937515 3.2925002 -1.38232443 1.62626404 0 0 Z " fill="#F7608E" transform="translate(180,330)"/>
<path d="M0 0 C0 0.99 0 1.98 0 3 C-2.5 4.6875 -2.5 4.6875 -5 6 C-5.33 4.68 -5.66 3.36 -6 2 C-4.02 1.34 -2.04 0.68 0 0 Z " fill="#FD9873" transform="translate(329,192)"/>
<path d="M0 0 C-0.33 1.32 -0.66 2.64 -1 4 C-2.65 3.67 -4.3 3.34 -6 3 C-6 2.34 -6 1.68 -6 1 C-3 0 -3 0 0 0 Z " fill="#FD9A6F" transform="translate(348,175)"/>
<path d="M0 0 C1.9375 0.375 1.9375 0.375 4 1 C4.33 1.66 4.66 2.32 5 3 C4.34 3.66 3.68 4.32 3 5 C0.525 4.01 0.525 4.01 -2 3 C-1.34 2.01 -0.68 1.02 0 0 Z " fill="#FBAF97" transform="translate(372,148)"/>
<path d="M0 0 C0.66 0.33 1.32 0.66 2 1 C1.34 2.65 0.68 4.3 0 6 C-3 6 -3 6 -5 5 C-4.360625 4.731875 -3.72125 4.46375 -3.0625 4.1875 C-0.66868314 3.11332248 -0.66868314 3.11332248 0 0 Z " fill="#E76599" transform="translate(173,332)"/>
</svg>
